<svg xmlns="http://www.w3.org/2000/svg" xmlns:xlink="http://www.w3.org/1999/xlink" width="512" zoomAndPan="magnify" viewBox="0 0 384 383.999986" height="512" preserveAspectRatio="xMidYMid meet" version="1.0"><defs><clipPath id="a2124e9ab8"><path d="M 0 39.679688 L 384 39.679688 L 384 309 L 0 309 Z M 0 39.679688 " clip-rule="nonzero"/></clipPath><clipPath id="b5f70ccc57"><path d="M 184 153 L 200 153 L 200 344.179688 L 184 344.179688 Z M 184 153 " clip-rule="nonzero"/></clipPath></defs><g clip-path="url(#a2124e9ab8)"><path fill="#f0f3f6" d="M 331.699219 181.363281 L 331.699219 180.804688 C 331.699219 104.003906 268.859375 39.933594 192.058594 39.90625 C 115 39.863281 52.300781 102.542969 52.300781 179.59375 L 52.300781 181.363281 C 22.539062 186.855469 0 212.933594 0 244.285156 C 0 256.8125 3.800781 269.265625 10.71875 279.703125 C 13.050781 283.234375 15.75 286.542969 18.75 289.542969 C 27.71875 298.515625 39.320312 304.8125 52.300781 307.214844 C 52.359375 307.222656 52.460938 307.234375 52.578125 307.246094 C 56.289062 307.914062 60.101562 308.285156 64 308.285156 L 68.449219 308.285156 C 74.730469 308.285156 79.828125 303.195312 79.828125 296.914062 L 79.828125 179.59375 C 79.828125 117.746094 130.148438 67.425781 192 67.425781 C 253.851562 67.425781 304.171875 117.746094 304.171875 179.59375 L 304.171875 296.914062 C 304.171875 303.195312 309.269531 308.285156 315.550781 308.285156 L 320 308.285156 C 323.898438 308.285156 327.710938 307.914062 331.421875 307.246094 C 331.539062 307.234375 331.640625 307.222656 331.699219 307.214844 C 344.679688 304.8125 356.28125 298.515625 365.25 289.542969 C 366.589844 288.203125 367.871094 286.804688 369.078125 285.355469 C 375.859375 277.214844 380.578125 267.382812 382.710938 256.996094 C 383.558594 252.824219 384 248.554688 384 244.285156 C 384 212.933594 361.460938 186.855469 331.699219 181.363281 " fill-opacity="1" fill-rule="nonzero"/></g><path fill="#cc29a0" d="M 102.75 224.804688 C 98.621094 224.804688 95.28125 228.144531 95.28125 232.273438 L 95.28125 265.132812 C 95.28125 269.253906 98.621094 272.605469 102.75 272.605469 C 106.871094 272.605469 110.21875 269.253906 110.21875 265.132812 L 110.21875 232.273438 C 110.21875 228.144531 106.871094 224.804688 102.75 224.804688 " fill-opacity="1" fill-rule="nonzero"/><path fill="#cc29a0" d="M 132.5 201.863281 C 128.378906 201.863281 125.03125 205.203125 125.03125 209.335938 L 125.03125 288.074219 C 125.03125 292.195312 128.378906 295.542969 132.5 295.542969 C 136.621094 295.542969 139.96875 292.195312 139.96875 288.074219 L 139.96875 209.335938 C 139.96875 205.203125 136.621094 201.863281 132.5 201.863281 " fill-opacity="1" fill-rule="nonzero"/><path fill="#cc29a0" d="M 162.25 180.203125 C 158.128906 180.203125 154.78125 183.542969 154.78125 187.675781 L 154.78125 309.734375 C 154.78125 313.855469 158.128906 317.203125 162.25 317.203125 C 166.371094 317.203125 169.71875 313.855469 169.71875 309.734375 L 169.71875 187.675781 C 169.71875 183.542969 166.371094 180.203125 162.25 180.203125 " fill-opacity="1" fill-rule="nonzero"/><g clip-path="url(#b5f70ccc57)"><path fill="#cc29a0" d="M 192 153.3125 C 187.878906 153.3125 184.53125 156.664062 184.53125 160.785156 L 184.53125 336.613281 C 184.53125 340.746094 187.878906 344.085938 192 344.085938 C 196.121094 344.085938 199.46875 340.746094 199.46875 336.613281 L 199.46875 160.785156 C 199.46875 156.664062 196.121094 153.3125 192 153.3125 " fill-opacity="1" fill-rule="nonzero"/></g><path fill="#cc29a0" d="M 221.75 180.203125 C 217.628906 180.203125 214.28125 183.542969 214.28125 187.675781 L 214.28125 309.734375 C 214.28125 313.855469 217.628906 317.203125 221.75 317.203125 C 225.871094 317.203125 229.21875 313.855469 229.21875 309.734375 L 229.21875 187.675781 C 229.21875 183.542969 225.871094 180.203125 221.75 180.203125 " fill-opacity="1" fill-rule="nonzero"/><path fill="#cc29a0" d="M 251.5 201.863281 C 247.378906 201.863281 244.03125 205.203125 244.03125 209.335938 L 244.03125 288.074219 C 244.03125 292.195312 247.378906 295.542969 251.5 295.542969 C 255.628906 295.542969 258.96875 292.195312 258.96875 288.074219 L 258.96875 209.335938 C 258.96875 205.203125 255.628906 201.863281 251.5 201.863281 " fill-opacity="1" fill-rule="nonzero"/><path fill="#cc29a0" d="M 281.25 224.804688 C 277.128906 224.804688 273.78125 228.144531 273.78125 232.273438 L 273.78125 265.132812 C 273.78125 269.253906 277.128906 272.605469 281.25 272.605469 C 285.378906 272.605469 288.71875 269.253906 288.71875 265.132812 L 288.71875 232.273438 C 288.71875 228.144531 285.378906 224.804688 281.25 224.804688 " fill-opacity="1" fill-rule="nonzero"/></svg>