<svg xmlns="http://www.w3.org/2000/svg" xmlns:xlink="http://www.w3.org/1999/xlink" width="512" zoomAndPan="magnify" viewBox="0 0 384 383.999986" height="512" preserveAspectRatio="xMidYMid meet" version="1.0"><path fill="#03c03d" d="M 175.835938 279.871094 C 176.382812 280.417969 176.957031 280.9375 177.558594 281.429688 C 178.15625 281.921875 178.78125 282.386719 179.425781 282.816406 C 180.070312 283.246094 180.734375 283.644531 181.421875 284.011719 C 182.105469 284.378906 182.804688 284.710938 183.523438 285.007812 C 184.242188 285.304688 184.96875 285.5625 185.714844 285.789062 C 186.457031 286.015625 187.207031 286.203125 187.96875 286.355469 C 188.730469 286.503906 189.496094 286.621094 190.269531 286.695312 C 191.042969 286.773438 191.816406 286.808594 192.59375 286.808594 C 193.367188 286.808594 194.144531 286.773438 194.914062 286.695312 C 195.6875 286.621094 196.453125 286.507812 197.214844 286.355469 C 197.976562 286.203125 198.730469 286.015625 199.472656 285.789062 C 200.214844 285.5625 200.945312 285.304688 201.660156 285.007812 C 202.378906 284.710938 203.078125 284.378906 203.765625 284.011719 C 204.449219 283.644531 205.113281 283.246094 205.757812 282.816406 C 206.40625 282.386719 207.027344 281.921875 207.628906 281.429688 C 208.226562 280.9375 208.800781 280.417969 209.351562 279.871094 L 327.871094 161.351562 C 328.433594 160.804688 328.96875 160.234375 329.476562 159.636719 C 329.984375 159.035156 330.460938 158.414062 330.910156 157.769531 C 331.355469 157.121094 331.769531 156.457031 332.148438 155.769531 C 332.527344 155.082031 332.871094 154.378906 333.183594 153.65625 C 333.492188 152.9375 333.765625 152.199219 334 151.453125 C 334.238281 150.703125 334.4375 149.945312 334.597656 149.179688 C 334.761719 148.410156 334.882812 147.636719 334.96875 146.855469 C 335.054688 146.074219 335.097656 145.292969 335.105469 144.507812 C 335.113281 143.722656 335.082031 142.9375 335.007812 142.15625 C 334.9375 141.375 334.828125 140.597656 334.679688 139.828125 C 334.53125 139.058594 334.347656 138.296875 334.121094 137.542969 C 333.898438 136.792969 333.636719 136.050781 333.339844 135.324219 C 333.042969 134.597656 332.710938 133.890625 332.34375 133.195312 C 331.976562 132.503906 331.574219 131.828125 331.140625 131.175781 C 330.707031 130.519531 330.238281 129.890625 329.742188 129.285156 C 329.246094 128.675781 328.71875 128.09375 328.164062 127.539062 C 327.609375 126.984375 327.027344 126.457031 326.421875 125.960938 C 325.8125 125.464844 325.183594 125 324.527344 124.5625 C 323.875 124.128906 323.203125 123.726562 322.507812 123.359375 C 321.816406 122.992188 321.105469 122.660156 320.378906 122.363281 C 319.652344 122.066406 318.914062 121.804688 318.160156 121.582031 C 317.40625 121.355469 316.644531 121.171875 315.875 121.023438 C 315.105469 120.875 314.328125 120.765625 313.546875 120.695312 C 312.765625 120.625 311.980469 120.589844 311.195312 120.597656 C 310.410156 120.605469 309.628906 120.652344 308.847656 120.734375 C 308.066406 120.820312 307.292969 120.941406 306.527344 121.105469 C 305.757812 121.265625 305 121.464844 304.25 121.703125 C 303.503906 121.9375 302.769531 122.210938 302.046875 122.523438 C 301.324219 122.832031 300.621094 123.175781 299.933594 123.554688 C 299.246094 123.9375 298.582031 124.347656 297.933594 124.792969 C 297.289062 125.242188 296.667969 125.71875 296.070312 126.226562 C 295.46875 126.734375 294.898438 127.269531 294.351562 127.835938 L 216.296875 205.890625 L 216.296875 26.074219 C 216.296875 25.296875 216.257812 24.523438 216.183594 23.75 C 216.105469 22.976562 215.992188 22.210938 215.839844 21.449219 C 215.6875 20.6875 215.5 19.9375 215.277344 19.191406 C 215.050781 18.449219 214.789062 17.71875 214.492188 17.003906 C 214.195312 16.285156 213.863281 15.585938 213.496094 14.898438 C 213.132812 14.214844 212.734375 13.550781 212.300781 12.90625 C 211.871094 12.257812 211.410156 11.636719 210.914062 11.035156 C 210.421875 10.4375 209.902344 9.863281 209.355469 9.3125 C 208.804688 8.765625 208.230469 8.242188 207.628906 7.75 C 207.03125 7.257812 206.40625 6.796875 205.761719 6.363281 C 205.117188 5.933594 204.449219 5.535156 203.765625 5.167969 C 203.082031 4.804688 202.378906 4.472656 201.664062 4.175781 C 200.945312 3.878906 200.214844 3.617188 199.472656 3.390625 C 198.730469 3.164062 197.976562 2.976562 197.21875 2.824219 C 196.457031 2.675781 195.6875 2.5625 194.914062 2.484375 C 194.144531 2.410156 193.367188 2.371094 192.59375 2.371094 C 191.816406 2.371094 191.042969 2.410156 190.269531 2.484375 C 189.496094 2.5625 188.730469 2.675781 187.96875 2.824219 C 187.207031 2.976562 186.453125 3.164062 185.710938 3.390625 C 184.96875 3.617188 184.238281 3.878906 183.523438 4.175781 C 182.804688 4.472656 182.101562 4.804688 181.417969 5.167969 C 180.734375 5.535156 180.070312 5.933594 179.421875 6.363281 C 178.777344 6.796875 178.15625 7.257812 177.554688 7.75 C 176.953125 8.242188 176.378906 8.765625 175.832031 9.3125 C 175.28125 9.863281 174.761719 10.4375 174.269531 11.035156 C 173.777344 11.636719 173.316406 12.257812 172.882812 12.90625 C 172.453125 13.550781 172.054688 14.214844 171.6875 14.898438 C 171.320312 15.585938 170.992188 16.285156 170.691406 17.003906 C 170.394531 17.71875 170.136719 18.449219 169.910156 19.191406 C 169.683594 19.9375 169.496094 20.6875 169.34375 21.449219 C 169.191406 22.210938 169.078125 22.976562 169.003906 23.75 C 168.925781 24.523438 168.890625 25.296875 168.890625 26.074219 L 168.890625 205.890625 L 90.832031 127.835938 C 90.28125 127.300781 89.703125 126.796875 89.101562 126.316406 C 88.5 125.839844 87.878906 125.394531 87.234375 124.976562 C 86.589844 124.558594 85.925781 124.175781 85.242188 123.824219 C 84.5625 123.472656 83.863281 123.152344 83.148438 122.867188 C 82.4375 122.582031 81.710938 122.335938 80.976562 122.121094 C 80.238281 121.90625 79.492188 121.726562 78.738281 121.585938 C 77.980469 121.445312 77.222656 121.339844 76.457031 121.273438 C 75.691406 121.203125 74.925781 121.175781 74.160156 121.179688 C 73.390625 121.1875 72.625 121.230469 71.863281 121.3125 C 71.097656 121.394531 70.339844 121.511719 69.589844 121.667969 C 68.835938 121.820312 68.09375 122.011719 67.363281 122.238281 C 66.628906 122.464844 65.90625 122.726562 65.199219 123.023438 C 64.492188 123.320312 63.800781 123.652344 63.125 124.015625 C 62.449219 124.378906 61.789062 124.777344 61.152344 125.203125 C 60.515625 125.632812 59.902344 126.089844 59.308594 126.578125 C 58.714844 127.066406 58.148438 127.578125 57.605469 128.121094 C 57.0625 128.664062 56.546875 129.234375 56.058594 129.828125 C 55.570312 130.417969 55.113281 131.035156 54.683594 131.671875 C 54.257812 132.308594 53.859375 132.964844 53.496094 133.640625 C 53.132812 134.316406 52.800781 135.011719 52.503906 135.71875 C 52.207031 136.425781 51.945312 137.148438 51.71875 137.878906 C 51.492188 138.613281 51.300781 139.355469 51.148438 140.109375 C 50.992188 140.859375 50.875 141.617188 50.792969 142.382812 C 50.714844 143.144531 50.667969 143.910156 50.664062 144.679688 C 50.65625 145.445312 50.6875 146.210938 50.753906 146.976562 C 50.820312 147.742188 50.925781 148.5 51.066406 149.253906 C 51.210938 150.011719 51.386719 150.757812 51.601562 151.492188 C 51.816406 152.230469 52.066406 152.957031 52.347656 153.667969 C 52.632812 154.382812 52.953125 155.078125 53.304688 155.761719 C 53.65625 156.445312 54.042969 157.105469 54.457031 157.75 C 54.875 158.394531 55.324219 159.019531 55.800781 159.621094 C 56.277344 160.222656 56.78125 160.800781 57.316406 161.351562 Z M 175.835938 279.871094 " fill-opacity="1" fill-rule="nonzero"/><path fill="#03c03d" d="M 311.109375 334.222656 L 74.074219 334.222656 C 73.296875 334.222656 72.523438 334.261719 71.75 334.335938 C 70.976562 334.414062 70.210938 334.527344 69.449219 334.675781 C 68.6875 334.828125 67.9375 335.015625 67.191406 335.242188 C 66.449219 335.46875 65.71875 335.730469 65.003906 336.027344 C 64.285156 336.324219 63.585938 336.65625 62.898438 337.019531 C 62.214844 337.386719 61.550781 337.785156 60.90625 338.21875 C 60.257812 338.648438 59.636719 339.109375 59.035156 339.601562 C 58.4375 340.09375 57.863281 340.617188 57.3125 341.164062 C 56.765625 341.714844 56.242188 342.289062 55.75 342.886719 C 55.257812 343.488281 54.796875 344.113281 54.363281 344.757812 C 53.933594 345.402344 53.535156 346.066406 53.167969 346.753906 C 52.804688 347.4375 52.472656 348.136719 52.175781 348.855469 C 51.878906 349.570312 51.617188 350.300781 51.390625 351.046875 C 51.164062 351.789062 50.976562 352.539062 50.824219 353.300781 C 50.675781 354.0625 50.5625 354.828125 50.484375 355.601562 C 50.410156 356.375 50.371094 357.148438 50.371094 357.925781 C 50.371094 358.703125 50.410156 359.476562 50.484375 360.25 C 50.5625 361.023438 50.675781 361.789062 50.824219 362.550781 C 50.976562 363.3125 51.164062 364.0625 51.390625 364.808594 C 51.617188 365.550781 51.878906 366.28125 52.175781 366.996094 C 52.472656 367.714844 52.804688 368.414062 53.167969 369.101562 C 53.535156 369.785156 53.933594 370.449219 54.363281 371.09375 C 54.796875 371.742188 55.257812 372.363281 55.75 372.964844 C 56.242188 373.5625 56.765625 374.136719 57.3125 374.6875 C 57.863281 375.234375 58.4375 375.757812 59.035156 376.25 C 59.636719 376.742188 60.257812 377.203125 60.90625 377.632812 C 61.550781 378.066406 62.214844 378.464844 62.898438 378.832031 C 63.585938 379.195312 64.285156 379.527344 65.003906 379.824219 C 65.71875 380.121094 66.449219 380.382812 67.191406 380.609375 C 67.9375 380.835938 68.6875 381.023438 69.449219 381.175781 C 70.210938 381.324219 70.976562 381.4375 71.75 381.515625 C 72.523438 381.589844 73.296875 381.628906 74.074219 381.628906 L 311.109375 381.628906 C 311.886719 381.628906 312.660156 381.589844 313.433594 381.515625 C 314.207031 381.4375 314.972656 381.324219 315.734375 381.175781 C 316.496094 381.023438 317.25 380.835938 317.992188 380.609375 C 318.734375 380.382812 319.464844 380.121094 320.183594 379.824219 C 320.898438 379.527344 321.601562 379.195312 322.285156 378.832031 C 322.96875 378.464844 323.632812 378.066406 324.28125 377.632812 C 324.925781 377.203125 325.546875 376.742188 326.148438 376.25 C 326.75 375.757812 327.324219 375.234375 327.871094 374.6875 C 328.421875 374.136719 328.941406 373.5625 329.433594 372.964844 C 329.925781 372.363281 330.390625 371.742188 330.820312 371.09375 C 331.25 370.449219 331.648438 369.785156 332.015625 369.101562 C 332.382812 368.414062 332.714844 367.714844 333.011719 366.996094 C 333.308594 366.28125 333.570312 365.550781 333.792969 364.808594 C 334.019531 364.0625 334.207031 363.3125 334.359375 362.550781 C 334.511719 361.789062 334.625 361.023438 334.699219 360.25 C 334.777344 359.476562 334.816406 358.703125 334.816406 357.925781 C 334.816406 357.148438 334.777344 356.375 334.699219 355.601562 C 334.625 354.828125 334.511719 354.0625 334.359375 353.300781 C 334.207031 352.539062 334.019531 351.789062 333.792969 351.046875 C 333.570312 350.300781 333.308594 349.570312 333.011719 348.855469 C 332.714844 348.136719 332.382812 347.4375 332.015625 346.753906 C 331.648438 346.066406 331.25 345.402344 330.820312 344.757812 C 330.386719 344.113281 329.925781 343.488281 329.433594 342.886719 C 328.941406 342.289062 328.421875 341.714844 327.871094 341.164062 C 327.324219 340.617188 326.75 340.09375 326.148438 339.601562 C 325.546875 339.109375 324.925781 338.648438 324.28125 338.21875 C 323.632812 337.785156 322.96875 337.386719 322.285156 337.019531 C 321.601562 336.65625 320.898438 336.324219 320.183594 336.027344 C 319.464844 335.730469 318.734375 335.46875 317.992188 335.242188 C 317.25 335.015625 316.496094 334.828125 315.734375 334.675781 C 314.972656 334.527344 314.207031 334.414062 313.433594 334.335938 C 312.660156 334.261719 311.886719 334.222656 311.109375 334.222656 Z M 311.109375 334.222656 " fill-opacity="1" fill-rule="nonzero"/></svg>